<?xml version="1.0" encoding="utf-8"?>
<!-- Generator: Adobe Illustrator 24.1.2, SVG Export Plug-In . SVG Version: 6.00 Build 0)  -->
<svg version="1.1" id="Layer_1" xmlns="http://www.w3.org/2000/svg" xmlns:xlink="http://www.w3.org/1999/xlink" x="0px" y="0px"
	 viewBox="0 0 170 60" style="enable-background:new 0 0 170 60;" xml:space="preserve">
<style type="text/css">
	.st0{fill:#FFFFFF;}
	.st1{fill:none;stroke:#000000;}
	.st2{font-family:'Verdana';}
	.st3{font-size:16px;}
	.st4{fill:#7CB342;}
	.st5{fill:none;stroke:#7CB342;stroke-width:2;stroke-linecap:round;}
</style>
<g id="Layer_1_1_">
	<path class="st0" d="M10,0.5h150c5.2,0,9.5,4.3,9.5,9.5v40c0,5.2-4.3,9.5-9.5,9.5H10c-5.2,0-9.5-4.3-9.5-9.5V10
		C0.5,4.8,4.8,0.5,10,0.5z"/>
	<path class="st1" d="M10,0.5h150c5.2,0,9.5,4.3,9.5,9.5v40c0,5.2-4.3,9.5-9.5,9.5H10c-5.2,0-9.5-4.3-9.5-9.5V10
		C0.5,4.8,4.8,0.5,10,0.5z"/>
	<text transform="matrix(1 0 0 1 74.7 35.2101)" class="st2 st3">Android</text>
</g>
<g id="New">
	<path class="st4" d="M40.2,34.8c0,1.1-0.9,2-2,2l0,0c-1.1,0-2-0.9-2-2v-9c0-1.1,0.9-2,2-2l0,0c1.1,0,2,0.9,2,2V34.8z"/>
	<path class="st4" d="M68.2,34.8c0,1.1-0.9,2-2,2l0,0c-1.1,0-2-0.9-2-2v-9c0-1.1,0.9-2,2-2l0,0c1.1,0,2,0.9,2,2V34.8z"/>
	<path class="st4" d="M50.2,45.8c0,1.1-0.9,2-2,2l0,0c-1.1,0-2-0.9-2-2v-9c0-1.1,0.9-2,2-2l0,0c1.1,0,2,0.9,2,2V45.8z"/>
	<path class="st4" d="M58.2,45.8c0,1.1-0.9,2-2,2l0,0c-1.1,0-2-0.9-2-2v-9c0-1.1,0.9-2,2-2l0,0c1.1,0,2,0.9,2,2V45.8z"/>
	<path class="st4" d="M42.2,23.8v15c0,1.1,0.9,2,2,2h16c1.1,0,2-0.9,2-2v-15L42.2,23.8z"/>
	<path class="st4" d="M52.2,13.8c-6,0-9.7,3.6-10,8h20C61.8,17.5,58.2,13.8,52.2,13.8z M48.2,19.4c-0.6,0-1-0.4-1-1s0.4-1,1-1
		s1,0.4,1,1S48.7,19.4,48.2,19.4z M56.2,19.4c-0.6,0-1-0.4-1-1s0.4-1,1-1s1,0.4,1,1v0C57.2,19,56.7,19.4,56.2,19.4z"/>
	<line class="st5" x1="58.2" y1="12.8" x2="56.5" y2="15.3"/>
	<line class="st5" x1="46.2" y1="12.8" x2="47.5" y2="14.9"/>
</g>
</svg>
