<svg width="170" height="60" viewBox="0 0 170 60" fill="none" xmlns="http://www.w3.org/2000/svg">
<rect x="0.5" y="0.5" width="169" height="59" rx="9.5" fill="white"/>
<path d="M41.0295 15.1423L43.05 18.6431L41.0295 15.1423Z" fill="#A4C639"/>
<path d="M56.9717 15.1423L54.9512 18.6431L56.9717 15.1423Z" fill="#A4C639"/>
<path fill-rule="evenodd" clip-rule="evenodd" d="M40.4576 14.1532C41.0036 13.8378 41.7017 14.0249 42.017 14.5711L43.5178 17.1711C44.7759 16.2719 46.3317 15.6759 48.0377 15.5113H49.9627C51.6681 15.6758 53.2235 16.2715 54.4814 17.1703L55.9819 14.5711C56.2971 14.0249 56.9953 13.8379 57.5412 14.1533C58.0872 14.4687 58.2742 15.1671 57.9589 15.7132L56.179 18.7965C57.0821 19.967 57.6164 21.3706 57.6375 22.8818H40.3629C40.3839 21.3711 40.9179 19.9679 41.8204 18.7977L40.0399 15.7132C39.7247 15.167 39.9117 14.4686 40.4576 14.1532ZM46.4269 19.4559C46.427 19.583 46.4015 19.709 46.3518 19.8266C46.3021 19.9441 46.2292 20.051 46.1371 20.141C46.0451 20.231 45.9358 20.3024 45.8155 20.3511C45.6952 20.3998 45.5662 20.4249 45.436 20.4249C45.3057 20.4249 45.1768 20.3998 45.0565 20.3511C44.9361 20.3024 44.8268 20.231 44.7348 20.141C44.6428 20.051 44.5698 19.9441 44.5201 19.8266C44.4704 19.709 44.4449 19.583 44.4451 19.4559C44.4449 19.3287 44.4704 19.2027 44.5201 19.0851C44.5698 18.9676 44.6428 18.8607 44.7348 18.7707C44.8268 18.6807 44.9361 18.6093 45.0565 18.5606C45.1768 18.5119 45.3057 18.4868 45.436 18.4868C45.5662 18.4868 45.6952 18.5119 45.8155 18.5606C45.9358 18.6093 46.0451 18.6807 46.1371 18.7707C46.2292 18.8607 46.3021 18.9676 46.3518 19.0851C46.4015 19.2027 46.427 19.3287 46.4269 19.4559ZM53.7486 19.8266C53.7983 19.709 53.8238 19.583 53.8236 19.4559C53.8238 19.3287 53.7983 19.2027 53.7486 19.0851C53.6989 18.9676 53.6259 18.8607 53.5339 18.7707C53.4418 18.6807 53.3325 18.6093 53.2122 18.5606C53.0919 18.5119 52.963 18.4868 52.8327 18.4868C52.7025 18.4868 52.5735 18.5119 52.4532 18.5606C52.3329 18.6093 52.2236 18.6807 52.1316 18.7707C52.0395 18.8607 51.9666 18.9676 51.9169 19.0851C51.8672 19.2027 51.8416 19.3287 51.8418 19.4559C51.8416 19.583 51.8672 19.709 51.9169 19.8266C51.9666 19.9441 52.0395 20.051 52.1316 20.141C52.2236 20.231 52.3329 20.3024 52.4532 20.3511C52.5735 20.3998 52.7025 20.4249 52.8327 20.4249C52.963 20.4249 53.0919 20.3998 53.2122 20.3511C53.3325 20.3024 53.4418 20.231 53.5339 20.141C53.6259 20.051 53.6989 19.9441 53.7486 19.8266ZM40.3061 23.6987C40.2998 23.7712 40.2943 23.8447 40.2943 23.919V36.3648C40.2943 37.7034 41.354 38.7816 42.6696 38.7816H42.765V44.085C42.765 45.1426 43.6225 46 44.6804 46C45.7382 46 46.5958 45.1426 46.5958 44.085V38.7816H51.4049V44.085C51.4049 45.1426 52.2624 46 53.3202 46C54.3781 46 55.2356 45.1426 55.2356 44.085V38.7816H55.3291C56.6447 38.7816 57.7044 37.7034 57.7044 36.3648V23.919C57.7044 23.8448 57.7019 23.7712 57.6956 23.6987H40.3062H40.3061ZM39.1328 27.1017C39.1328 26.0441 38.2753 25.1868 37.2175 25.1868C36.1596 25.1868 35.3021 26.0441 35.3021 27.1017V35.3164C35.3021 36.374 36.1596 37.2314 37.2175 37.2314C38.2753 37.2314 39.1328 36.374 39.1328 35.3164V27.1017ZM62.6978 27.1018C62.6978 26.0442 61.8403 25.1868 60.7824 25.1868C59.7246 25.1868 58.8671 26.0442 58.8671 27.1018V35.3165C58.8671 36.3741 59.7246 37.2314 60.7824 37.2314C61.8403 37.2314 62.6978 36.3741 62.6978 35.3165V27.1018Z" fill="#A4C639"/>
<path d="M75.3399 35.5L76.3001 32.6307H80.6751L81.6411 35.5H83.8911L79.7888 23.8636H77.1865L73.0899 35.5H75.3399ZM76.8683 30.9375L78.4422 26.25H78.5331L80.107 30.9375H76.8683ZM87.3896 30.3864C87.3896 29.125 88.151 28.3977 89.2362 28.3977C90.2987 28.3977 90.9351 29.0966 90.9351 30.2614V35.5H92.9919V29.9432C92.9976 27.8523 91.8044 26.6591 90.0033 26.6591C88.6965 26.6591 87.7987 27.2841 87.401 28.2557H87.2987V26.7727H85.3328V35.5H87.3896V30.3864ZM98.3215 35.6534C99.8215 35.6534 100.498 34.7614 100.821 34.125H100.946V35.5H102.969V23.8636H100.907V28.2159H100.821C100.509 27.5852 99.8669 26.6591 98.3271 26.6591C96.3101 26.6591 94.7249 28.2386 94.7249 31.1477C94.7249 34.0227 96.2646 35.6534 98.3215 35.6534ZM98.8953 33.9659C97.5374 33.9659 96.8215 32.7727 96.8215 31.1364C96.8215 29.5114 97.526 28.3466 98.8953 28.3466C100.219 28.3466 100.946 29.4432 100.946 31.1364C100.946 32.8295 100.208 33.9659 98.8953 33.9659ZM105.161 35.5H107.218V30.3693C107.218 29.2614 108.053 28.4773 109.184 28.4773C109.53 28.4773 109.962 28.5398 110.138 28.5966V26.7045C109.951 26.6705 109.627 26.6477 109.4 26.6477C108.4 26.6477 107.564 27.2159 107.246 28.2273H107.155V26.7727H105.161V35.5ZM114.952 35.6705C117.509 35.6705 119.134 33.8693 119.134 31.1705C119.134 28.4659 117.509 26.6591 114.952 26.6591C112.395 26.6591 110.77 28.4659 110.77 31.1705C110.77 33.8693 112.395 35.6705 114.952 35.6705ZM114.964 34.0227C113.549 34.0227 112.856 32.7614 112.856 31.1648C112.856 29.5682 113.549 28.2898 114.964 28.2898C116.356 28.2898 117.049 29.5682 117.049 31.1648C117.049 32.7614 116.356 34.0227 114.964 34.0227ZM120.88 35.5H122.937V26.7727H120.88V35.5ZM121.914 25.5341C122.567 25.5341 123.101 25.0341 123.101 24.4205C123.101 23.8011 122.567 23.3011 121.914 23.3011C121.255 23.3011 120.721 23.8011 120.721 24.4205C120.721 25.0341 121.255 25.5341 121.914 25.5341ZM128.29 35.6534C129.79 35.6534 130.466 34.7614 130.79 34.125H130.915V35.5H132.938V23.8636H130.875V28.2159H130.79C130.478 27.5852 129.836 26.6591 128.296 26.6591C126.279 26.6591 124.694 28.2386 124.694 31.1477C124.694 34.0227 126.233 35.6534 128.29 35.6534ZM128.864 33.9659C127.506 33.9659 126.79 32.7727 126.79 31.1364C126.79 29.5114 127.495 28.3466 128.864 28.3466C130.188 28.3466 130.915 29.4432 130.915 31.1364C130.915 32.8295 130.177 33.9659 128.864 33.9659Z" fill="black"/>
<rect x="0.5" y="0.5" width="169" height="59" rx="9.5" stroke="black"/>
</svg>
