<svg id="Layer_1" data-name="Layer 1" xmlns="http://www.w3.org/2000/svg" viewBox="0 0 170 60"><defs><style>.cls-1{fill:#fff;}.cls-2{fill:none;stroke:#000;}.cls-3{font-size:16px;font-family:Verdana;}</style></defs><rect class="cls-1" x="0.5" y="0.5" width="169" height="59" rx="9.5"/><rect class="cls-2" x="0.5" y="0.5" width="169" height="59" rx="9.5"/><text class="cls-3" transform="translate(89.7 35.21)">Flask</text><g id="layer1"><path id="path2900" d="M59,46.88a22.94,22.94,0,0,1-5-4.69A38,38,0,0,1,47.6,30.81c-.88-2.67-1.18-5.53-2.31-8.09-1.19-1.87.2-3.9,2.24-4.5.91-.17,2.51-1,.58-.41-1.73,1.26-1.9-1.16-.13-1.31a1.41,1.41,0,0,0,1.25-2c-1.3-.85,3.14-1.78.91-3-2.34-2.52,3.26-3,1.88-.15-.33,2.2,3.91-.4,2.92,2.14,1,1.22,3.74.28,3.68,2,1.45.1,2,1.33,3.32,1.42,1.42.64,4,1.15,4.47,2.74-1.41,1.12-4.66-2.29-4.82.79.42,4.54.32,9.23,2,13.56.79,2.63,2.7,4.69,4.42,6.74a19.22,19.22,0,0,0,6.16,4.59,25.4,25.4,0,0,0,6.33,2c.88-.68,2.44-3.19,3.82-2.13.06,1.19-2.74,2.49-.13,2.36,1.52-.46,2.58,1.18,3.84-.3,1.16,1.37,4.82-.88,4,1.93-1.11.72-2.74.28-3.85,1.27-1.85-.92-3.31.83-5.35.6a39.58,39.58,0,0,1-6.87.58c-3.76-.3-7.61-.43-11.19-1.74A22.35,22.35,0,0,1,59,46.88Zm3.18,1.38a22.4,22.4,0,0,0,6.06,2c3.42.47,7,1.21,10.4.54-1.56-.7-3.17.27-4.72-.5-1.86.4-3.85-.11-5.74-.35a54.38,54.38,0,0,1-6.49-2.86c-2.51-.92,1.31,1.18,2,1.35,1.58.89-1.73-.46-2.19-.83-1.32-.74-1.49-.59-.13.16.27.16.54.33.83.47Zm-3.75-2.65c1.91.7,0-1.35-.89-1.23-.38-.67-1.48-1.1-.71-1.46-1.38.48-1.45-1.83-2.1-1.5-1.47-.46-.57-2.11-2.32-3.11-.16-1.07-1.74-2-2.24-3.59-.23-.82-1.79-3.18-.83-1a31.05,31.05,0,0,0,3.45,5.72,11.8,11.8,0,0,0,3.71,4.59c.57.55,1.12,1.38,1.93,1.56Zm-5.51-6C53,39.28,53.25,40.19,52.9,39.56Zm7.79,6.89C61.12,46.26,60.09,46.21,60.69,46.45Zm1,.38C61.62,46.31,61.26,47.12,61.73,46.83Zm1.3.54C63.65,46.78,62.08,47,63,47.37Zm2.22,1.24C65.63,48.06,64.05,48.4,65.25,48.61Zm-4.27-3C61.94,45,59.74,45.63,61,45.64Zm1,.48C61.93,45.79,61.61,46.27,62,46.12Zm4.86,3c.78.49,4.57,1.08,2.2.2C68.62,49.44,64.62,48.23,66.82,49.16Zm-7.72-6C59,42.81,57.88,42.78,59.1,43.14Zm2.26,1.32C62,44.05,60.14,44.14,61.36,44.46Zm1.91,1.17C64.11,45.31,61.89,45.31,63.27,45.63Zm-5.1-3.49c.92.7,3.71.09,1.41-.42-1-.56-3.4-.94-1.79.33l.38.09ZM64.56,46C64.94,45.38,63,45.66,64.56,46Zm-1.94-1.54c2.24.64-1.89-1.42-.56-.23l.3.13.26.1Zm3.89,2.25c2.12,0-1.92-.29,0,0Zm-9.15-5.83C57.27,40.51,56.83,40.94,57.36,40.91ZM70.1,48.76C70.16,48,69.41,49.29,70.1,48.76ZM61,43.13C60.86,42.75,60.32,43.11,61,43.13Zm-3.42-2.47C58.78,40.59,55.89,40.12,57.56,40.66ZM53.5,38C53.35,37.45,52.17,37,53.5,38ZM64.15,44.8C63.93,44.54,64.05,44.85,64.15,44.8Zm6.64,4.07C70.76,48.48,70.42,49,70.79,48.87Zm-7.22-4.68C63.69,43.69,62.53,44,63.57,44.19Zm-4.94-3.13C59.53,41,57.17,40.45,58.63,41.06ZM67,46.25C68.4,45.69,65.61,46,67,46.25Zm-4.34-3c1.63.21-1.94-1.11-.36-.12l.36.12Zm5.66,3.49c1.53-.91,1,2.13,2.59.25,1.54-1.12-1.33,1.39.56.2,1.38-.91,3.41.44,4.69.88.92,0,1.82.8,2.76.29,1.82-.49-3.56-.73-2.15-1.6-1.66.48-2.89-.58-3.71-1.64-1.87-.43-4-1.39-5-3-.38-.62.55.09-.32-.93a13.48,13.48,0,0,1-2.45-3.35c-.9-.48-1-1.9-1.09-.05,0-1.16-1.09-1.95-1.36-1.62,0-1.13,1.17-.56.35-1.4-.18-1.16-.76-2.38-.94-3.69-.27-.64,0-2-.93-.56-.33,1.52-.11-1.86.4-.75.66-1.14-.24-1-.28-.85.43-1,.28-2.32-.11-1.8.23-1,.36-3.74-.35-3.26.43-1.07.82-4.87-1-3.42a7.87,7.87,0,0,0-2.68.58c1.94,1.07-.2.39-1,.22-.1,1-.88.56-1.86.57,1.56.19-.76,1.6-1.66,1.05-1.16.56,1,1.95,0,2.38.13.64-1.78-.24-1.63,1.26-1.13-.48-.15,1.77.41,1,1.92.52,1.35,1.7,1.4,2.83-.31.66-1.54-1.54-.27-1.44-1-1.63-1.11-.59-1.94.17-.2.05,2.12,1.07.67,1.58,1.28.2,1.31,1.32,1.57,2,.77.8.62-.89,1.54.08-.59-.86-3.09-2.42-1.07-1.92,0-.87-.37-1.56.25-1.55.61-1.1-.64,2.73.74,1.33.38-.17.47-1.11,1.16.09,1,1,.36,1.69-1,.79.26.85,1.88,1.16,1.58,2.49.32,1.17.78.74,1.17.67.31,1.14.49.31.5-.24,1.42.31,1.09,1.15,1.54,1.74,1,.44-1.41-3,.28-1,1.77,1.6.66,2.27-.93,2,1-.08,1.33,1.36,2.59,1.31,1.14.54,1.92,2.64-.06,1.76-.68-.61-3.11-1.38-1.13-.2a45.76,45.76,0,0,1,5.05,2.42c1.26.9,1.81,1.93,2.29,2.14-1.06.5-3.2-.41-1.61-.69-1-.18-2.11-.68-1.16.55.81.68,2.86.61,3.22.68-.31.69-.84.74,0,.8-1,.51.3.59.39.88Zm-2-5.54c-.58-.61-.73-1.75-.1-.75.32.13,1,1.86.1.75Zm6.38,4.06C73.09,45.28,72.74,45.58,72.72,45.31Zm-7.3-5.55C65.4,38.84,65.64,40.47,65.42,39.76Zm-.63-.85C64.06,37.49,65.71,39.31,64.79,38.91ZM57.11,33.6C57.54,33.49,57.32,34.34,57.11,33.6Zm6.11,3.32C63.49,35.92,63.53,37.75,63.22,36.92Zm-4.32-3C58.6,33.37,59.54,34.43,58.9,33.91Zm3.71,1.19c-.7-1.55.49-.85.15.26l-.15-.26Zm-6.4-4.26a4.89,4.89,0,0,1-.65-2.47c.15.75,1.58,3.21.7,1-1-1.83,1.16.6,1.38,1.05s-.6-.12-.12.95C56.65,30.17,57,32.06,56.21,30.84Zm-2-1.36C54.32,28.29,54.69,30.29,54.24,29.48Zm.89.3C55.55,28.89,55.85,31,55.13,29.78ZM53,28.13c-.74-.73-1.27-1.41,0-.46.51,0-1.11-1.53.12-.49C54.44,27.42,53.79,29.31,53,28.13Zm1.12,0C54.54,27.68,54.34,28.52,54.11,28.1Zm.69.22C54.16,27.11,55.59,28.83,54.8,28.32ZM53.43,27c-2.14-1.91,2.69,1,.35.35L53.43,27Zm6.13,3.56c-.93-.56-.25-3.91.07-1.62.9-.29-.05,1.19.62,1.17C60.14,31.05,59.84,31.39,59.56,30.57Zm2.26,1.34C61.92,30.9,62,32.6,61.82,31.91Zm-.39-.39C61.53,31.09,61.44,32,61.43,31.52Zm-7.58-5.14c-1.37-1.89,4,1.92.88.48C54.4,26.78,54,26.75,53.85,26.38Zm4.36,2.32c-.13-1.6.29.26,0,0Zm3.32,2.12C61.78,29.91,61.55,31.42,61.53,30.82Zm-7.47-5.16c.82-.18,3.38,1.43,1,.46C54.82,25.83,54.27,26,54.06,25.66Zm7,3.49c.09-1.63.49-1,0,.24v-.24Zm-6.4-4.06c.33-.49-.89-2.21.17-.62.46.37,1.33.61.56.77C56.61,26.3,55.11,25.52,54.67,25.09Zm6.06,3.55C61,26.78,60.93,29.73,60.73,28.64ZM54,23.37C54.23,23.26,54.11,23.71,54,23.37Zm1.58.94C56,23.46,56.3,25.27,55.55,24.31ZM60,26.79C60,26.47,60.09,27.27,60,26.79Zm-.26-.57C59.13,24.7,60.33,27,59.75,26.22Zm-.38-1c-.1-.63.36.79,0,0Zm.62-1c-.42-.75.54-3.3.64-1.72-.44,1.23-.13,1.92.19.27.57-1.3-.13,2.56-.83,1.45Zm.64-3.79C60.81,20.2,60.67,20.7,60.63,20.43Zm-1.07,20.9C59.31,41.11,59.6,41.47,59.56,41.33Zm2.19,1.11c1.22.31,1.21-.19.11-.34-.59-.55-2.45-1.13-.79-.07.12.28.46.27.68.41Zm-4.32-2.87c.67.5,2.53,1.42,1,.19.53-.61-1-.94-.5-1.35-1.3-.8-1-.73-.12-.7-1.56-.7.23-.65.14-1-.6-.12-3-1.06-1.58.08-1.43-.73-.34.27-.78.17-1.46-.4,1.31,1.11-.23.74.84.66,2.26,1.7.36.7-.25.36,1.36.91,1.75,1.18Zm2.29,1.31C62.5,41.78,58.36,39.79,59.72,40.88ZM71.42,48C71.46,47.42,71,48.44,71.42,48Zm1.2.51c.65-.62,0,1,1.07-.15,0-.82,0-1.3-1.19-.31-.32.18-.47.93.12.46Zm-19.09-12C53.34,35.71,52.15,35.72,53.53,36.49Zm1.29.84C54.34,36.54,53.12,36.61,54.82,37.33Zm7.3,4.41c.72.63,3.28.46.87.07C62.63,41.29,60.72,41.41,62.12,41.74Zm10.05,6.2C73.26,47,71.1,48.35,72.17,47.94Zm2.28,1.57C74.46,49.21,74,49.64,74.45,49.51Zm0-.42c1.22-1.28-1.17.08,0,0ZM50.37,33.84c-1-1.47-.64-2.14-1.64-3.35-.19-.92-1.71-3-.79-.79C48.79,31,49,33,50.37,33.84Zm23.7,14.85C76.31,47.24,73.15,48.06,74.07,48.69Zm1.71.66C76.9,48.39,75.07,49.15,75.78,49.35ZM53.15,34.85C53.47,34.38,52.32,34.79,53.15,34.85Zm22.27,14c1.09-.7-.25-.59-.19.06l.19-.06ZM60.71,39.62C60.67,39.15,60.13,39.66,60.71,39.62Zm.9.52C61.33,39.56,61.17,40.24,61.61,40.14Zm15.55,9.23c1.39-1-.84-.19-.29.19l.29-.19Zm-.53-.26C77.76,48.16,75.44,49.53,76.63,49.11Zm2.72,1.81C80.11,50.41,78.43,50.76,79.35,50.92ZM53.85,34.51c1,.23,4.07,2.51,2.27.16-.92-.27-.37-2.53-1.31-2.13.63,1.05.52,1.5-.81.84-1.66-.81-.93.4-.61.74-.44.1.59.38.46.39Zm-4.64-3.66c.18-.76-1.68-4.15-.88-1.71C48.62,29.66,48.59,30.63,49.21,30.85Zm8.52,5.25C57.2,35.66,57.7,36,57.73,36.1Zm1.29.3C59,35.6,57.59,36.07,59,36.4Zm11.19,7.05c-.21-.54-.84,0,0,0Zm.54.4C70.67,43.54,70.44,43.91,70.75,43.85Zm4.44,2.79C75.61,46.33,74.65,46.6,75.19,46.64ZM51.53,31.44C52.75,31,50.22,31.1,51.53,31.44Zm17.7,11.15C69.21,41.8,68.45,42.78,69.23,42.59ZM51,30.31C51.83,30.05,50.32,30.14,51,30.31Zm2.28,1.11C53.31,31.16,53.08,31.51,53.32,31.42Zm27.76,17c1-.21,3.3.51,3.67-.27-1.22,0-4.23-.87-4.38.2l.27,0,.44,0ZM54,31.6C54.06,30.8,53.42,31.57,54,31.6Zm-6-4.15C47.79,25.92,47,27.22,48.06,27.45Zm1.43.36C49.5,27.32,48.18,27.37,49.49,27.81Zm.81.4C50.07,28,50.12,28.45,50.3,28.21Zm5.13,3.29C55.67,31.28,54.86,31.33,55.43,31.5Zm-5.67-4.2C49.62,26.15,48.11,27.13,49.76,27.3Zm-2.93-1.89C46.79,24.87,46.55,25.61,46.83,25.41Zm.44-.33C47.2,24.45,46.89,25.16,47.27,25.08Zm2.4,1.43c1-.4-1.85-.82-.21-.07ZM81.85,46.39C82.5,45.79,81,46.2,81.85,46.39Zm3.88,2C86,47.63,85.08,48.5,85.73,48.4ZM49.92,25.25C50,24.51,49.11,25.4,49.92,25.25ZM46.5,23c-.19-1.05-.16-2.9,1.6-2.28-2.35.47,1.62,2.92,1.12,1,1,.05,1.93-.58,1.41.38,1.94-.22,3.29-1.9,5.17-1.66a20.85,20.85,0,0,0,4.64-.93c1.29-.1,2.54-1.49,1.83-2.32a20,20,0,0,0-5.57.46c-2.16.45-4.13,1.31-6.31,1.67s.42.79-.19.9c-1.11.39,1.33.65-.14,1.05-.91-.17-1.85-.48-1.46-1.44-2,.27-3.83,1.11-2.22,3.19Zm4.91-2.5c.48-1.76,2.56,1.45.78.23A1.07,1.07,0,0,0,51.41,20.46Zm.09-.86C52.19,19.09,51.87,19.89,51.5,19.6Zm.88,0c.06-.81,2,.43.32.29l-.32-.29Zm1.2-.48C54,18.63,53.7,19.59,53.58,19.14Zm.3-.21c.73-.87,4.13-.56,1.64-.08C54.86,18.34,54.35,19.14,53.88,18.93Zm4.44-.68C58.21,15.86,60.52,19.1,58.32,18.25Zm1.26,0c.46-1.2,1.78-.48.21-.24C59.82,18.13,59.74,18.62,59.58,18.24ZM49.42,24.63c1.38-.84-1.46-.73,0,0Zm1,.29C50.92,24.4,49.39,24.71,50.44,24.92Zm-3-2.13C48.23,22.19,46.51,22.56,47.44,22.79ZM88,48.18C88.05,47.48,87.43,48.5,88,48.18ZM83.9,45.37C84,44.56,83.37,45.44,83.9,45.37Zm5.26,3.08c1.1,0,3.33-.34.94-.34-.38.06-2.18,0-.94.34Zm-37.83-24c.89-.06,1.39-1-.17-.93-2.42-.25,2.14.83-.31.52C50.52,24.23,51.31,24.48,51.33,24.42Zm.78.4C52,24.25,51.84,25.12,52.11,24.82ZM53,22.34C53.43,21.86,52.51,22.21,53,22.34ZM50.09,17.4c1.58-.54,3.75-1.14,4.5.27-.76-.92-.31-1.82.41-.48,1,1.36,1.53-.62.87-1.07.75.93,1.61,1.38.5.06,1.21-1.45-2.41.19-3.23.17C52.75,16.53,49.06,17.29,50.09,17.4ZM51,15.62c.9-.68,3.13.41,1.7-.68C52.58,14.82,49.59,15.77,51,15.62Zm3.29.14c1.06,0-.45-1.42.81-.77-.21-.67-1.47-.8-2.09-1.07C52.69,14.54,53.74,15.77,54.31,15.76Zm-2.71-3C52,12.27,51,13,51.6,12.76Zm1.34.33c1.71-.23-.43-.74-.34,0l.34,0Zm-2.51-2c-1.2-1.57,2.26.26,1-1.38C50.44,8.92,49.45,10.66,50.43,11.12Zm15.41,8.3c.55-1-2.27-1.32-.37-.34C65.65,19.13,65.61,19.49,65.84,19.42Z" transform="translate(0 0)"/></g></svg>