<svg width="170" height="60" viewBox="0 0 170 60" fill="none" xmlns="http://www.w3.org/2000/svg">
<rect x="0.5" y="0.5" width="169" height="59" rx="9.5" fill="white"/>
<path d="M79.2122 38.9377C78.7357 40.0557 78.1718 41.0848 77.5184 42.031C76.6277 43.3208 75.8985 44.2136 75.3365 44.7094C74.4653 45.5232 73.5319 45.94 72.5323 45.9637C71.8147 45.9637 70.9494 45.7563 69.942 45.3355C68.9314 44.9168 68.0026 44.7094 67.1534 44.7094C66.2628 44.7094 65.3076 44.9168 64.2858 45.3355C63.2626 45.7563 62.4382 45.9755 61.808 45.9973C60.8495 46.0387 59.894 45.6101 58.9404 44.7094C58.3317 44.1702 57.5704 43.2457 56.6584 41.9361C55.6798 40.5377 54.8753 38.916 54.245 37.0672C53.5701 35.0702 53.2317 33.1364 53.2317 31.2643C53.2317 29.1197 53.6879 27.2701 54.6017 25.7201C55.3199 24.4751 56.2753 23.493 57.471 22.7721C58.6668 22.0511 59.9588 21.6837 61.3502 21.6602C62.1115 21.6602 63.1099 21.8994 64.3506 22.3695C65.5878 22.8412 66.3822 23.0804 66.7305 23.0804C66.9908 23.0804 67.8733 22.8007 69.3693 22.2431C70.7841 21.726 71.9781 21.5119 72.9562 21.5962C75.6068 21.8135 77.5981 22.8748 78.9224 24.7868C76.5519 26.2458 75.3793 28.2891 75.4026 30.9105C75.424 32.9523 76.1532 34.6514 77.5864 36.0005C78.236 36.6267 78.9613 37.1106 79.7683 37.4543C79.5933 37.9698 79.4086 38.4637 79.2122 38.9377ZM73.1332 14.6402C73.1332 16.2405 72.5576 17.7348 71.4102 19.1179C70.0257 20.7621 68.3509 21.7122 66.5348 21.5622C66.5117 21.3702 66.4983 21.1682 66.4983 20.9558C66.4983 19.4195 67.1567 17.7753 68.326 16.4309C68.9098 15.7503 69.6523 15.1843 70.5527 14.7328C71.4511 14.2881 72.3009 14.0421 73.1001 14C73.1235 14.2139 73.1332 14.4279 73.1332 14.6402V14.6402Z" fill="black"/>
<path d="M90.8251 35.5H92.8819V26.7727H90.8251V35.5ZM91.8592 25.5341C92.5126 25.5341 93.0467 25.0341 93.0467 24.4205C93.0467 23.8011 92.5126 23.3011 91.8592 23.3011C91.2001 23.3011 90.666 23.8011 90.666 24.4205C90.666 25.0341 91.2001 25.5341 91.8592 25.5341ZM105.486 29.6818C105.486 25.9205 103.19 23.7045 100.139 23.7045C97.0822 23.7045 94.7925 25.9205 94.7925 29.6818C94.7925 33.4375 97.0822 35.6591 100.139 35.6591C103.19 35.6591 105.486 33.4432 105.486 29.6818ZM103.366 29.6818C103.366 32.3295 102.037 33.767 100.139 33.767C98.247 33.767 96.9118 32.3295 96.9118 29.6818C96.9118 27.0341 98.247 25.5966 100.139 25.5966C102.037 25.5966 103.366 27.0341 103.366 29.6818ZM113.802 27.0625H115.831C115.791 25.0966 114.115 23.7045 111.638 23.7045C109.194 23.7045 107.359 25.0795 107.365 27.1364C107.365 28.8068 108.552 29.767 110.467 30.2614L111.791 30.6023C113.047 30.9205 113.876 31.3125 113.882 32.2159C113.876 33.2102 112.933 33.875 111.558 33.875C110.24 33.875 109.217 33.2841 109.132 32.0625H107.058C107.143 34.375 108.865 35.6761 111.575 35.6761C114.365 35.6761 115.984 34.2841 115.99 32.233C115.984 30.2159 114.319 29.2955 112.569 28.8807L111.479 28.608C110.524 28.3807 109.49 27.9773 109.501 27.0057C109.507 26.1307 110.291 25.4886 111.609 25.4886C112.865 25.4886 113.694 26.0739 113.802 27.0625Z" fill="black"/>
<rect x="0.5" y="0.5" width="169" height="59" rx="9.5" stroke="black"/>
</svg>
