<svg width="170" height="60" viewBox="0 0 170 60" fill="none" xmlns="http://www.w3.org/2000/svg">
<rect x="0.5" y="0.5" width="169" height="59" rx="9.5" fill="white"/>
<rect x="46.5" y="14" width="32" height="32" rx="6" fill="#F0DB4F"/>
<path d="M57.8288 38.254C58.3277 39.0249 58.7358 39.6598 59.6429 39.6598C60.5045 39.6598 61.0941 39.297 61.0941 37.9818V28.8662H63.7698V38.0272C63.7698 40.7936 62.1372 42.0635 59.7789 42.0635C57.6474 42.0635 56.3775 40.9297 55.7426 39.6145" fill="#323330"/>
<path d="M67.3979 38.0272C67.9875 38.9796 68.7131 39.6598 70.0283 39.6598C71.1621 39.6598 71.8424 39.1156 71.8424 38.3446C71.8424 37.4376 71.1168 37.1201 69.8923 36.5759L69.212 36.3038C67.2619 35.4875 65.992 34.4444 65.992 32.2675C65.992 30.272 67.534 28.7301 69.9376 28.7301C71.661 28.7301 72.8855 29.3196 73.7472 30.8616L71.661 32.2222C71.2075 31.4058 70.7086 31.0884 69.9376 31.0884C69.1667 31.0884 68.6678 31.5872 68.6678 32.2222C68.6678 33.0385 69.1667 33.3559 70.3004 33.8548L70.9807 34.1269C73.2483 35.1247 74.5635 36.1224 74.5635 38.3446C74.5635 40.7483 72.6587 42.0635 70.119 42.0635C67.6247 42.0635 65.992 40.8843 65.2211 39.3424" fill="#323330"/>
<path d="M92.0966 35.5H94.1761L96.5114 27.3352H96.6023L98.9318 35.5H101.011L104.295 23.8636H102.028L99.9318 32.4205H99.8295L97.5852 23.8636H95.5227L93.2841 32.4148H93.1761L91.0795 23.8636H88.8125L92.0966 35.5ZM108.639 35.6705C110.673 35.6705 112.071 34.6761 112.435 33.1591L110.514 32.9432C110.236 33.6818 109.554 34.0682 108.668 34.0682C107.338 34.0682 106.457 33.1932 106.44 31.6989H112.52V31.0682C112.52 28.0057 110.679 26.6591 108.531 26.6591C106.031 26.6591 104.401 28.4943 104.401 31.1875C104.401 33.9261 106.009 35.6705 108.639 35.6705ZM106.446 30.3125C106.509 29.1989 107.332 28.2614 108.56 28.2614C109.741 28.2614 110.537 29.125 110.548 30.3125H106.446ZM114.351 35.5H116.374V34.125H116.493C116.817 34.7614 117.493 35.6534 118.993 35.6534C121.05 35.6534 122.589 34.0227 122.589 31.1477C122.589 28.2386 121.004 26.6591 118.987 26.6591C117.447 26.6591 116.805 27.5852 116.493 28.2159H116.408V23.8636H114.351V35.5ZM116.368 31.1364C116.368 29.4432 117.095 28.3466 118.419 28.3466C119.788 28.3466 120.493 29.5114 120.493 31.1364C120.493 32.7727 119.777 33.9659 118.419 33.9659C117.107 33.9659 116.368 32.8295 116.368 31.1364Z" fill="black"/>
<rect x="0.5" y="0.5" width="169" height="59" rx="9.5" stroke="black"/>
</svg>
