<svg width="170" height="60" viewBox="0 0 170 60" fill="none" xmlns="http://www.w3.org/2000/svg">
<rect x="0.5" y="0.5" width="169" height="59" rx="9.5" fill="white"/>
<path fill-rule="evenodd" clip-rule="evenodd" d="M41.4152 23.9684C45.9856 25.3674 48.9666 27.6233 48.9666 30.0037C48.9666 32.3767 46.0003 34.6326 41.4592 36.0316C42.5212 40.6752 42.0598 44.374 40.0016 45.5605C39.5182 45.8389 38.9616 45.9707 38.3463 45.9707C36.3321 45.9707 33.6954 44.5498 31.0293 42.0742C28.3633 44.5644 25.7265 46 23.7123 46C23.0971 46 22.5404 45.8682 22.0643 45.5898C19.9989 44.4033 19.5301 40.6972 20.5848 36.0389C16.0144 34.64 13.0334 32.3841 13.0334 30.0037C13.0334 27.6306 15.9998 25.382 20.5555 23.9757C19.4935 19.3321 19.9549 15.6333 22.0131 14.4468C22.4965 14.1685 23.0531 14.0366 23.6684 14.0366V14.0293C25.6826 14.0293 28.3193 15.4502 30.9854 17.9258C33.6514 15.4356 36.2882 14 38.3024 14V14.0073C38.9075 14.0084 39.4615 14.1403 39.9357 14.4175C42.0012 15.604 42.4699 19.3101 41.4152 23.9684ZM38.2951 15.6333C36.7717 15.6372 34.5339 16.8527 32.15 19.0684C33.1827 20.1451 34.2081 21.3756 35.1969 22.7306C36.8448 22.9064 38.4123 23.1774 39.8478 23.529C40.009 22.7892 40.1408 22.0641 40.2214 21.3756C40.5583 18.5777 40.1261 16.4024 39.13 15.8311C38.903 15.7066 38.632 15.6407 38.2951 15.6407V15.6333ZM29.8208 19.0758C27.4331 16.8711 25.1845 15.6626 23.6684 15.6626V15.6699C23.3315 15.6699 23.0458 15.7285 22.8261 15.8604C21.8373 16.439 21.4125 18.6143 21.7567 21.4122C21.8446 22.0934 21.9691 22.8038 22.1376 23.5363C23.5732 23.1774 25.1406 22.9064 26.7959 22.7306C27.77 21.3756 28.7954 20.1524 29.8208 19.0758ZM38.4415 28.0114C38.8224 27.0373 39.1593 26.0632 39.4303 25.1183C38.4708 24.884 37.4674 24.6935 36.4274 24.5397C36.7863 25.0964 37.1451 25.6677 37.4821 26.2536C37.8263 26.8396 38.1412 27.4255 38.4415 28.0114ZM34.3106 35.7166C34.9185 34.845 35.5045 33.9075 36.0758 32.9187C36.6251 31.9593 37.1305 30.9778 37.5919 29.9963C37.1305 29.0149 36.6251 28.0407 36.0685 27.0813C35.4972 26.0998 34.9039 25.1696 34.296 24.298C33.212 24.2101 32.106 24.1588 31 24.1588C29.8867 24.1588 28.7808 24.2101 27.6894 24.3053C27.0815 25.1769 26.4956 26.1144 25.9243 27.1032C25.3749 28.0627 24.8622 29.0442 24.4081 30.0256C24.8696 31.0071 25.3749 31.9812 25.9316 32.9407C26.5029 33.9222 27.0962 34.8524 27.7041 35.724C28.7881 35.8119 29.8941 35.8631 31 35.8631C32.1133 35.8631 33.2193 35.8119 34.3106 35.7166ZM39.4523 34.8817C39.174 33.9295 38.8371 32.948 38.4415 31.9666C38.1412 32.5525 37.8263 33.1458 37.4894 33.7317C37.1525 34.325 36.7936 34.9036 36.4347 35.4676C37.4821 35.3138 38.4928 35.116 39.4523 34.8817ZM28.9785 37.4379C29.6524 38.2948 30.3335 39.0785 31.0147 39.7816C31.6885 39.0785 32.3697 38.2948 33.0289 37.4379C32.3624 37.4745 31.6812 37.4891 30.9927 37.4891C30.3115 37.4891 29.6377 37.4672 28.9785 37.4379ZM22.5624 34.889C23.5219 35.1234 24.5253 35.3138 25.5654 35.4676C25.2065 34.911 24.8549 34.3397 24.5107 33.7537C24.1664 33.1678 23.8515 32.5818 23.5512 31.9959C23.1703 32.97 22.8334 33.9442 22.5624 34.889ZM33.0142 22.5695C32.3404 21.7125 31.6592 20.9288 30.9781 20.2257C30.3042 20.9288 29.6231 21.7125 28.9639 22.5695C29.6304 22.5328 30.3115 22.5182 31 22.5182C31.6812 22.5182 32.355 22.5402 33.0142 22.5695ZM24.5033 26.2756C24.8403 25.6823 25.1992 25.1037 25.5581 24.5397C24.5107 24.6935 23.4999 24.8913 22.5404 25.1183C22.8188 26.0705 23.1557 27.052 23.5512 28.0334C23.8515 27.4475 24.1664 26.8615 24.5033 26.2756ZM14.6594 30.0037C14.6594 31.1536 16.3367 32.6038 18.9295 33.7098C19.5668 33.9808 20.2552 34.2298 20.9803 34.4569C21.3905 33.0286 21.9325 31.5418 22.6063 30.0183C21.9252 28.4875 21.3759 26.9934 20.9584 25.5578C20.2479 25.7848 19.5594 26.0265 18.9295 26.2975C16.3367 27.3962 14.6594 28.8537 14.6594 30.0037ZM21.7787 38.6317C21.4418 41.4296 21.8739 43.6049 22.87 44.1762C23.0898 44.3008 23.3681 44.3667 23.6977 44.374C25.2211 44.374 27.4624 43.1582 29.8501 40.9389C28.8174 39.8622 27.792 38.6317 26.8032 37.2767C25.1552 37.1009 23.5878 36.8299 22.1522 36.4784C21.9911 37.2181 21.8593 37.9432 21.7787 38.6317ZM39.174 44.1469C40.1628 43.5683 40.5876 41.393 40.2433 38.5951C40.1628 37.9139 40.0309 37.2035 39.8625 36.4637C38.4269 36.8226 36.8595 37.0936 35.2042 37.2694C34.2301 38.6244 33.2047 39.8476 32.1792 40.9242C34.567 43.1289 36.8155 44.3374 38.3317 44.3374C38.6686 44.3374 38.9543 44.2788 39.174 44.1469ZM41.0344 34.4495C41.7448 34.2225 42.4333 33.9808 43.0632 33.7098C45.656 32.6111 47.3333 31.1536 47.3406 30.0037C47.3406 28.8537 45.6633 27.4035 43.0705 26.2975C42.426 26.0265 41.7375 25.7775 41.0124 25.5505C40.6022 26.9787 40.0602 28.4656 39.3864 29.989C40.0676 31.5198 40.6169 33.014 41.0344 34.4495ZM34.34 30.0037C34.34 31.8523 32.8414 33.3509 30.9928 33.3509C29.1441 33.3509 27.6455 31.8523 27.6455 30.0037C27.6455 28.1551 29.1441 26.6565 30.9928 26.6565C32.8414 26.6565 34.34 28.1551 34.34 30.0037Z" fill="#61DAFB"/>
<path d="M60.1143 35.5H62.2222V31.2386H64.37L66.6541 35.5H69.0063L66.4893 30.8864C67.8586 30.3352 68.5802 29.1648 68.5802 27.5852C68.5802 25.3636 67.1484 23.8636 64.4779 23.8636H60.1143V35.5ZM62.2222 29.4886V25.625H64.1541C65.7279 25.625 66.4325 26.3466 66.4325 27.5852C66.4325 28.8239 65.7279 29.4886 64.1654 29.4886H62.2222ZM74.1683 35.6705C76.2023 35.6705 77.6001 34.6761 77.9637 33.1591L76.0433 32.9432C75.7648 33.6818 75.083 34.0682 74.1967 34.0682C72.8671 34.0682 71.9864 33.1932 71.9694 31.6989H78.0489V31.0682C78.0489 28.0057 76.208 26.6591 74.0603 26.6591C71.5603 26.6591 69.9296 28.4943 69.9296 31.1875C69.9296 33.9261 71.5376 35.6705 74.1683 35.6705ZM71.9751 30.3125C72.0376 29.1989 72.8614 28.2614 74.0887 28.2614C75.2705 28.2614 76.066 29.125 76.0773 30.3125H71.9751ZM82.3004 35.6761C83.6697 35.6761 84.4879 35.0341 84.8629 34.3011H84.931V35.5H86.9083V29.6591C86.9083 27.3523 85.0276 26.6591 83.3629 26.6591C81.5276 26.6591 80.1185 27.4773 79.664 29.0682L81.5845 29.3409C81.789 28.7443 82.3685 28.233 83.3742 28.233C84.3288 28.233 84.8515 28.7216 84.8515 29.5795V29.6136C84.8515 30.2045 84.2322 30.233 82.6924 30.3977C80.9992 30.5795 79.3799 31.0852 79.3799 33.0511C79.3799 34.767 80.6356 35.6761 82.3004 35.6761ZM82.8345 34.1648C81.9765 34.1648 81.3629 33.7727 81.3629 33.017C81.3629 32.2273 82.0504 31.8977 82.9708 31.767C83.5106 31.6932 84.5901 31.5568 84.8572 31.3409V32.3693C84.8572 33.3409 84.0731 34.1648 82.8345 34.1648ZM92.7833 35.6705C94.9765 35.6705 96.3742 34.3693 96.522 32.517H94.556C94.3799 33.4545 93.7038 33.9943 92.8004 33.9943C91.5163 33.9943 90.6867 32.9205 90.6867 31.1364C90.6867 29.375 91.5333 28.3182 92.8004 28.3182C93.789 28.3182 94.397 28.9545 94.556 29.7955H96.522C96.3799 27.9034 94.9026 26.6591 92.772 26.6591C90.2151 26.6591 88.6015 28.5057 88.6015 31.1705C88.6015 33.8125 90.1754 35.6705 92.7833 35.6705ZM102.569 26.7727H100.847V24.6818H98.7904V26.7727H97.5518V28.3636H98.7904V33.2159C98.7791 34.858 99.9722 35.6648 101.518 35.6193C102.103 35.6023 102.506 35.4886 102.728 35.4148L102.381 33.8068C102.268 33.8352 102.035 33.8864 101.779 33.8864C101.262 33.8864 100.847 33.7045 100.847 32.875V28.3636H102.569V26.7727ZM117.911 23.8636H115.815V31.7955H115.712L110.235 23.8636H108.349V35.5H110.457V27.5739H110.553L116.036 35.5H117.911V23.8636ZM122.628 35.6761C123.998 35.6761 124.816 35.0341 125.191 34.3011H125.259V35.5H127.236V29.6591C127.236 27.3523 125.356 26.6591 123.691 26.6591C121.856 26.6591 120.447 27.4773 119.992 29.0682L121.913 29.3409C122.117 28.7443 122.697 28.233 123.702 28.233C124.657 28.233 125.18 28.7216 125.18 29.5795V29.6136C125.18 30.2045 124.56 30.233 123.021 30.3977C121.327 30.5795 119.708 31.0852 119.708 33.0511C119.708 34.767 120.964 35.6761 122.628 35.6761ZM123.163 34.1648C122.305 34.1648 121.691 33.7727 121.691 33.017C121.691 32.2273 122.378 31.8977 123.299 31.767C123.839 31.6932 124.918 31.5568 125.185 31.3409V32.3693C125.185 33.3409 124.401 34.1648 123.163 34.1648ZM133.663 26.7727H131.941V24.6818H129.884V26.7727H128.646V28.3636H129.884V33.2159C129.873 34.858 131.066 35.6648 132.611 35.6193C133.197 35.6023 133.6 35.4886 133.822 35.4148L133.475 33.8068C133.361 33.8352 133.128 33.8864 132.873 33.8864C132.356 33.8864 131.941 33.7045 131.941 32.875V28.3636H133.663V26.7727ZM135.383 35.5H137.44V26.7727H135.383V35.5ZM136.417 25.5341C137.07 25.5341 137.604 25.0341 137.604 24.4205C137.604 23.8011 137.07 23.3011 136.417 23.3011C135.758 23.3011 135.224 23.8011 135.224 24.4205C135.224 25.0341 135.758 25.5341 136.417 25.5341ZM147.35 26.7727H145.163L143.151 33.2557H143.06L141.055 26.7727H138.861L141.969 35.5H144.242L147.35 26.7727ZM152.34 35.6705C154.374 35.6705 155.772 34.6761 156.136 33.1591L154.215 32.9432C153.937 33.6818 153.255 34.0682 152.369 34.0682C151.039 34.0682 150.158 33.1932 150.141 31.6989H156.221V31.0682C156.221 28.0057 154.38 26.6591 152.232 26.6591C149.732 26.6591 148.101 28.4943 148.101 31.1875C148.101 33.9261 149.709 35.6705 152.34 35.6705ZM150.147 30.3125C150.209 29.1989 151.033 28.2614 152.261 28.2614C153.442 28.2614 154.238 29.125 154.249 30.3125H150.147Z" fill="black"/>
<rect x="0.5" y="0.5" width="169" height="59" rx="9.5" stroke="black"/>
</svg>
