<?xml version="1.0" encoding="utf-8"?>
<!-- Generator: Adobe Illustrator 24.1.2, SVG Export Plug-In . SVG Version: 6.00 Build 0)  -->
<svg version="1.1" id="Layer_1" xmlns="http://www.w3.org/2000/svg" xmlns:xlink="http://www.w3.org/1999/xlink" x="0px" y="0px"
	 viewBox="0 0 170 60" style="enable-background:new 0 0 170 60;" xml:space="preserve">
<style type="text/css">
	.st0{fill:#FFFFFF;}
	.st1{fill:none;stroke:#000000;}
	.st2{fill:#E44D26;}
	.st3{fill:#F16529;}
	.st4{fill:#EBEBEB;}
</style>
<g id="Layer_1_1_">
	<path class="st0" d="M10,0.5h150c5.2,0,9.5,4.3,9.5,9.5v40c0,5.2-4.3,9.5-9.5,9.5H10c-5.2,0-9.5-4.3-9.5-9.5V10
		C0.5,4.8,4.8,0.5,10,0.5z"/>
	<path class="st1" d="M10,0.5h150c5.2,0,9.5,4.3,9.5,9.5v40c0,5.2-4.3,9.5-9.5,9.5H10c-5.2,0-9.5-4.3-9.5-9.5V10
		C0.5,4.8,4.8,0.5,10,0.5z"/>
</g>
<path d="M74.4,21h5.9v5.9h5.5V21h5.9v17.8h-5.9v-5.9h-5.4v5.9h-6 M99.6,26.9h-5.2V21h16.5v5.9h-5.3v11.9h-5.9 M113.5,21h6.2l3.8,6.3
	l3.8-6.3h6.2v17.8h-5.9V30l-4.2,6.4l-4.2-6.4v8.8h-5.8 M136.5,21h5.9v11.9h8.4v5.9h-14.4"/>
<path class="st2" d="M31.5,46.6L28.1,9H65l-3.4,37.6l-15.1,4.2"/>
<path class="st3" d="M46.5,47.6V12.1h15.1l-2.9,32.1"/>
<path class="st4" d="M34.9,16.7h11.6v4.6H40l0.4,4.7h6.1v4.6H36.2 M36.4,32.9H41l0.3,3.7l5.2,1.4v4.8l-9.5-2.6"/>
<path class="st0" d="M58.1,16.7H46.5v4.6h11.1 M57.2,26H46.5v4.6h5.7l-0.5,6L46.5,38v4.8l9.4-2.6"/>
</svg>
