<svg xmlns="http://www.w3.org/2000/svg" viewBox="0 0 170 60"><defs><style>.cls-1{fill:#fff;}.cls-2{fill:none;stroke:#000;}.cls-3{fill:#00749a;}.cls-4{fill:#464342;}</style></defs><g id="Layer_1" data-name="Layer 1"><rect class="cls-1" x="0.5" y="0.5" width="169" height="59" rx="9.5"/><rect class="cls-2" x="0.5" y="0.5" width="169" height="59" rx="9.5"/></g><g id="New"><g id="Layer_2" data-name="Layer 2"><path class="cls-3" d="M96.39,26.25H90.58v.61c1.82,0,2.11.39,2.11,2.69v4.16c0,2.3-.29,2.72-2.11,2.72-1.39-.19-2.34-.94-3.63-2.37l-1.49-1.62c2-.36,3.08-1.62,3.08-3,0-1.78-1.53-3.14-4.38-3.14H78.45v.61c1.82,0,2.11.39,2.11,2.69v4.16c0,2.3-.29,2.72-2.11,2.72v.62H84.9v-.62c-1.81,0-2.1-.42-2.1-2.72V32.54h.55L87,37.05h9.44c4.63,0,6.65-2.47,6.65-5.42S101,26.25,96.39,26.25ZM82.8,31.53V27.22h1.33a2,2,0,0,1,2.1,2.17,2,2,0,0,1-2.1,2.14ZM96.48,36h-.22c-1.17,0-1.33-.29-1.33-1.78v-7h1.55c3.38,0,4,2.46,4,4.38S99.86,36,96.48,36Z" transform="translate(0 0)"/><path class="cls-3" d="M60.38,32.73l2.24-6.61c.65-1.92.36-2.47-1.72-2.47V23H67v.65c-2,0-2.53.49-3.34,2.85L60,37.6h-.42L56.23,27.45,52.86,37.6h-.42l-3.6-11.1c-.78-2.36-1.3-2.85-3.18-2.85V23h7.2v.65c-1.92,0-2.43.45-1.75,2.47l2.17,6.61L56.56,23h.61Z" transform="translate(0 0)"/><path class="cls-3" d="M71.41,37.47c-3.57,0-6.49-2.63-6.49-5.84s2.92-5.81,6.49-5.81,6.49,2.63,6.49,5.81S75,37.47,71.41,37.47Zm0-10.64c-3,0-4,2.69-4,4.8s1,4.8,4,4.8,4.06-2.66,4.06-4.8S74.43,26.83,71.41,26.83Z" transform="translate(0 0)"/><path class="cls-4" d="M111.05,36.4v.65h-7.43V36.4c2.17,0,2.56-.55,2.56-3.8V27.41c0-3.24-.39-3.76-2.56-3.76V23h6.71c3.34,0,5.19,1.72,5.19,4s-1.85,4-5.19,4h-1.85V32.6C108.48,35.85,108.87,36.4,111.05,36.4Zm-.72-12.23h-1.85v5.64h1.85A2.53,2.53,0,0,0,113,27,2.57,2.57,0,0,0,110.33,24.17Z" transform="translate(0 0)"/><path class="cls-4" d="M137.81,34l-.17.58c-.29,1.07-.65,1.46-2.95,1.46h-.45c-1.69,0-2-.39-2-2.69V31.86c2.53,0,2.72.22,2.72,1.91h.62V28.94H135c0,1.68-.19,1.91-2.72,1.91V27.22H134c2.31,0,2.66.39,3,1.46l.17.61h.52l-.23-3h-9.54v.61c1.82,0,2.11.39,2.11,2.69v4.16c0,2.1-.25,2.63-1.68,2.71-1.36-.21-2.29-1-3.57-2.36l-1.5-1.62c2-.36,3.09-1.62,3.09-3,0-1.78-1.53-3.14-4.38-3.14h-5.71v.61c1.81,0,2.11.39,2.11,2.69v4.16c0,2.3-.3,2.72-2.11,2.72v.62h6.45v-.62c-1.81,0-2.1-.42-2.1-2.72V32.54h.55l3.6,4.51H138.1l.19-3Zm-17.2-2.47V27.22h1.33a2,2,0,0,1,2.11,2.17,2,2,0,0,1-2.11,2.14Z" transform="translate(0 0)"/><path class="cls-4" d="M144.39,37.47a4.75,4.75,0,0,1-2.92-1.11,2.44,2.44,0,0,0-.52,1.11h-.61V33H141a3.61,3.61,0,0,0,3.67,3.41,1.67,1.67,0,0,0,1.88-1.56c0-.84-.75-1.49-2.08-2.11l-1.84-.87a3.53,3.53,0,0,1-2.27-3.12c0-1.55,1.45-2.88,3.47-2.88a4.11,4.11,0,0,1,2.53.84,1.89,1.89,0,0,0,.42-.88h.61v3.83h-.68c-.22-1.52-1.07-2.79-2.79-2.79-.9,0-1.75.52-1.75,1.33s.68,1.3,2.24,2l1.78.88A3.39,3.39,0,0,1,148.35,34C148.35,36,146.56,37.47,144.39,37.47Z" transform="translate(0 0)"/><path class="cls-4" d="M154.38,37.47a4.75,4.75,0,0,1-2.92-1.11,2.44,2.44,0,0,0-.52,1.11h-.61V33H151a3.61,3.61,0,0,0,3.67,3.41,1.67,1.67,0,0,0,1.88-1.56c0-.84-.75-1.49-2.08-2.11l-1.84-.87a3.54,3.54,0,0,1-2.28-3.12c0-1.55,1.46-2.88,3.48-2.88a4.11,4.11,0,0,1,2.53.84,1.89,1.89,0,0,0,.42-.88h.61v3.83h-.68c-.22-1.52-1.07-2.79-2.79-2.79-.91,0-1.75.52-1.75,1.33s.68,1.3,2.24,2l1.78.88A3.39,3.39,0,0,1,158.34,34C158.34,36,156.55,37.47,154.38,37.47Z" transform="translate(0 0)"/><path class="cls-4" d="M13.22,29.81a14.33,14.33,0,0,0,8.09,12.91L14.46,24A14.43,14.43,0,0,0,13.22,29.81Z" transform="translate(0 0)"/><path class="cls-4" d="M37.27,29.08a7.55,7.55,0,0,0-1.19-4,6.68,6.68,0,0,1-1.41-3.36,2.49,2.49,0,0,1,2.41-2.55h.19a14.35,14.35,0,0,0-21.69,2.7l.93,0c1.5,0,3.82-.18,3.82-.18a.59.59,0,0,1,.09,1.18s-.77.09-1.64.14L24,38.62l3.14-9.42-2.24-6.12c-.77,0-1.5-.14-1.5-.14a.59.59,0,0,1,.09-1.18s2.37.18,3.78.18,3.82-.18,3.82-.18a.59.59,0,0,1,.1,1.18s-.78.09-1.65.14l5.19,15.43,1.43-4.79A17.37,17.37,0,0,0,37.27,29.08Z" transform="translate(0 0)"/><path class="cls-4" d="M27.83,31.06,23.52,43.58a14.7,14.7,0,0,0,4.06.58,14.42,14.42,0,0,0,4.76-.81,1.24,1.24,0,0,1-.1-.2Z" transform="translate(0 0)"/><path class="cls-4" d="M40.17,22.92a11.32,11.32,0,0,1,.1,1.47,13.56,13.56,0,0,1-1.09,5.15L34.79,42.21a14.35,14.35,0,0,0,5.38-19.29Z" transform="translate(0 0)"/><path class="cls-4" d="M27.58,13.07A16.74,16.74,0,1,0,44.31,29.81,16.76,16.76,0,0,0,27.58,13.07Zm0,32.7a16,16,0,1,1,16-16A16,16,0,0,1,27.58,45.77Z" transform="translate(0 0)"/></g></g></svg>